<?xml version="1.0" encoding="UTF-8"?>
<svg width="24px" height="24px" viewBox="0 0 24 24" version="1.1" xmlns="http://www.w3.org/2000/svg">
    <title>Shopping Cart</title>
    <g stroke="none" stroke-width="1" fill="none" fill-rule="evenodd">
        <path d="M3,3 L5,3 L5.4,5 M7,13 L17,13 L21,5 L5.4,5 M7,13 L5.4,5 M7,13 L4.707,15.293 C4.077,15.923 4.523,17 5.414,17 L17,17 M17,17 A2,2 0 1,0 17,21 A2,2 0 0,0 17,17 M9,19 A2,2 0 1,1 5,19 A2,2 0 0,1 9,19" 
              stroke="#4F46E5" 
              stroke-width="2" 
              stroke-linecap="round" 
              stroke-linejoin="round"/>
    </g>
</svg>
